<svg width="12" height="16" viewBox="0 0 12 16" fill="none" xmlns="http://www.w3.org/2000/svg">
<path d="M0.746626 1.25043L0.746625 14.7504C0.747053 14.8871 0.78475 15.0211 0.855659 15.1379C0.926566 15.2548 1.028 15.3501 1.14904 15.4136C1.27008 15.4771 1.40615 15.5063 1.54259 15.4983C1.67903 15.4902 1.81068 15.445 1.92338 15.3677L11.6734 8.61768C12.0776 8.33793 12.0776 7.66443 11.6734 7.38393L1.92338 0.63393C1.81092 0.555798 1.6792 0.50998 1.54253 0.501454C1.40586 0.492927 1.26947 0.522018 1.14817 0.585565C1.02687 0.649113 0.92531 0.744687 0.854517 0.861903C0.783725 0.979119 0.746409 1.11349 0.746626 1.25043Z" fill="#979797"/>
</svg>
