<svg width="24" height="24" viewBox="0 0 24 24" fill="currentColor" xmlns="http://www.w3.org/2000/svg">
<path d="M12.7768 19.2905L12.7419 19.3223L12.7896 19.2746C13.8016 18.3583 14.7525 17.4973 15.6211 16.6809C14.761 17.4905 13.8109 18.3528 12.7783 19.2892L12.7768 19.2905ZM21 8.5C21 9.57296 20.6706 10.6168 19.999 11.733C20.6231 10.6894 21 9.62263 21 8.5ZM3 8.5C3 9.59549 3.35893 10.6378 3.95593 11.6573C3.31465 10.5695 3 9.54867 3 8.5ZM11.6891 6.36C10.8409 4.94233 9.18717 4 7.5 4C8.9377 4 10.3341 4.67446 11.2412 5.73128L11.7808 6.36H11.6891ZM12.3109 6.36H12.2192L12.7588 5.73128C13.6659 4.67446 15.0623 4 16.5 4C14.8128 4 13.1591 4.94233 12.3109 6.36Z" stroke="currentColor" stroke-width="2"/>
</svg>
