<svg width="24" height="24" viewBox="0 0 24 24" fill="currentColor" xmlns="http://www.w3.org/2000/svg">
<g id="mingcute:hoe-line">
<g id="Group">
<path id="Vector" fill-rule="evenodd" clip-rule="evenodd" d="M6.46445 5.4632C5.91542 6.01224 5.50179 6.6816 5.25636 7.41825C5.01093 8.15489 4.94043 8.93858 5.05045 9.7072L5.47445 12.6772C5.50067 12.8611 5.57758 13.034 5.69655 13.1766C5.81552 13.3192 5.97186 13.4259 6.14804 13.4846C6.32422 13.5434 6.51328 13.5519 6.69404 13.5093C6.8748 13.4666 7.04011 13.3745 7.17145 13.2432L10.0004 10.4142L17.7774 18.1922C17.965 18.3798 18.2193 18.4853 18.4846 18.4854C18.7499 18.4855 19.0043 18.3802 19.192 18.1927C19.3796 18.0052 19.4851 17.7508 19.4852 17.4856C19.4852 17.2203 19.38 16.9658 19.1925 16.7782L11.4145 9.0002L14.2424 6.1712C14.3738 6.03986 14.4659 5.87455 14.5085 5.69379C14.5512 5.51303 14.5426 5.32397 14.4839 5.14779C14.4251 4.97161 14.3185 4.81527 14.1758 4.6963C14.0332 4.57733 13.8603 4.50042 13.6764 4.4742L10.7064 4.0502C9.93814 3.9405 9.15485 4.01116 8.41858 4.25658C7.68231 4.50201 7.01328 4.91446 6.46445 5.4632ZM9.31445 8.2712L11.4145 6.1712L10.4244 6.0292C9.96341 5.96336 9.49338 6.00576 9.05157 6.15304C8.60976 6.30032 8.20831 6.54844 7.879 6.87775C7.54969 7.20706 7.30157 7.60851 7.15429 8.05032C7.00701 8.49213 6.96461 8.96216 7.03045 9.4232L7.17145 10.4132L9.27145 8.3132L9.31345 8.2712H9.31445Z" fill="currentColor"/>
</g>
</g>
</svg>
