<svg width="24" height="24" viewBox="0 0 24 24" fill="currentColor" xmlns="http://www.w3.org/2000/svg">
<g id="ion:fish-outline">
<path id="Vector" d="M11.3333 7.45C9.22042 7.98419 7.41042 9.73856 6.32083 10.6626C6.0065 10.3567 5.67523 10.0707 5.32875 9.80594C3.81375 8.64394 2 8.5 2 8.5C2 8.5 2.47375 10.7544 3.72333 11.9926C2.47375 13.2311 2 15.4856 2 15.4856C2 15.4856 3.81375 15.3416 5.32875 14.1796C5.6723 13.9171 6.00079 13.6336 6.3125 13.3304C7.4 14.2553 9.21833 16.0141 11.3333 16.55L10.6667 19C12.3096 18.7082 13.9525 17.4464 14.6133 16.8891C20 16.6375 22 13.0062 22 12C22 11.0375 20 7.3625 14.6296 7.11181C13.98 6.56538 12.3233 5.294 10.6667 5L11.3333 7.45Z" stroke="currentColor" stroke-width="2" stroke-linejoin="round"/>
<path id="Vector_2" d="M18.75 12C19.1642 12 19.5 11.6642 19.5 11.25C19.5 10.8358 19.1642 10.5 18.75 10.5C18.3358 10.5 18 10.8358 18 11.25C18 11.6642 18.3358 12 18.75 12Z" fill="currentColor" />
<path id="Vector_3" d="M16.2617 16.6875C15.4353 15.2635 15 13.6464 15 12C15 10.3536 15.4353 8.73646 16.2617 7.3125" stroke="currentColor" stroke-width="1.5" stroke-miterlimit="20" stroke-linecap="round"/>
</g>
</svg>
