<svg width="24" height="24" viewBox="0 0 24 24" fill="currentColor" xmlns="http://www.w3.org/2000/svg">
<g id="ri:service-line">
<path id="Vector" d="M3.16202 4.46868C4.32208 3.3084 5.87802 2.62976 7.51762 2.56893C9.15721 2.50809 10.7592 3.06956 12.002 4.14068C13.2438 3.07135 14.8436 2.51051 16.4812 2.57044C18.1189 2.63037 19.6734 3.30665 20.8337 4.46388C21.994 5.62112 22.6743 7.1739 22.7385 8.81137C22.8027 10.4488 22.2461 12.0501 21.18 13.2947L13.415 21.0847C13.0583 21.4416 12.5798 21.6504 12.0755 21.6693C11.5713 21.6882 11.0785 21.5158 10.696 21.1867L10.586 21.0857L2.82202 13.2947C1.75651 12.0512 1.1996 10.4514 1.26263 8.81506C1.32567 7.17873 2.004 5.62649 3.16202 4.46868ZM4.57602 5.88268C3.75826 6.70066 3.28687 7.80212 3.25969 8.95845C3.2325 10.1148 3.65161 11.2372 4.43002 12.0927L4.57602 12.2467L12.001 19.6717L17.304 14.3667L13.769 10.8327L12.709 11.8927C12.1465 12.4555 11.3834 12.7717 10.5877 12.7719C9.79201 12.7721 9.02881 12.4562 8.46602 11.8937C7.90323 11.3312 7.58695 10.5681 7.58676 9.77238C7.58658 8.97667 7.90249 8.21347 8.46502 7.65068L10.567 5.54768C9.73057 4.87986 8.68347 4.53205 7.6137 4.56669C6.54392 4.60133 5.52151 5.01615 4.73002 5.73668L4.57602 5.88268ZM13.062 8.71068C13.2495 8.52321 13.5039 8.41789 13.769 8.41789C14.0342 8.41789 14.2885 8.52321 14.476 8.71068L18.718 12.9527L19.426 12.2467C20.2575 11.4158 20.7308 10.2926 20.7449 9.11724C20.7589 7.94188 20.3124 6.80769 19.501 5.95723C18.6896 5.10677 17.5777 4.60755 16.403 4.56633C15.2282 4.52511 14.084 4.94517 13.215 5.73668L13.062 5.88268L9.88002 9.06468C9.70669 9.23789 9.60299 9.46872 9.58861 9.71334C9.57424 9.95796 9.65018 10.1993 9.80202 10.3917L9.88002 10.4787C10.0532 10.652 10.2841 10.7557 10.5287 10.7701C10.7733 10.7845 11.0147 10.7085 11.207 10.5567L11.294 10.4787L13.062 8.71068Z" fill="currentColor"/>
</g>
</svg>
