<svg width="37" height="22" viewBox="0 0 37 22" fill="none" xmlns="http://www.w3.org/2000/svg">
<rect x="0.5" y="0.5" width="36" height="21" rx="10.5" stroke="black"/>
<path fill-rule="evenodd" clip-rule="evenodd" d="M13.6109 8.00327C13.6109 6.70791 14.661 5.65781 15.9564 5.65781C17.2518 5.65781 18.3018 6.70791 18.3018 8.00327C18.3018 9.29863 17.2518 10.3487 15.9564 10.3487C14.661 10.3487 13.6109 9.29863 13.6109 8.00327ZM15.9564 4.25781C13.8878 4.25781 12.2109 5.93471 12.2109 8.00327C12.2109 10.0718 13.8878 11.7487 15.9564 11.7487C18.0249 11.7487 19.7018 10.0718 19.7018 8.00327C19.7018 5.93471 18.0249 4.25781 15.9564 4.25781ZM13.2923 12.5254C12.299 12.5254 11.3463 12.92 10.6439 13.6224C9.94148 14.3248 9.54688 15.2775 9.54688 16.2708V17.7936C9.54688 18.1802 9.86028 18.4936 10.2469 18.4936C10.6335 18.4936 10.9469 18.1802 10.9469 17.7936V16.2708C10.9469 15.6488 11.194 15.0522 11.6338 14.6124C12.0737 14.1725 12.6703 13.9254 13.2923 13.9254H18.6219C19.2439 13.9254 19.8405 14.1725 20.2804 14.6124C20.7202 15.0522 20.9673 15.6488 20.9673 16.2708V17.7936C20.9673 18.1802 21.2807 18.4936 21.6673 18.4936C22.0539 18.4936 22.3673 18.1802 22.3673 17.7936V16.2708C22.3673 15.2775 21.9727 14.3248 21.2703 13.6224C20.5679 12.92 19.6152 12.5254 18.6219 12.5254H13.2923ZM24.7156 7.19336C25.1022 7.19336 25.4156 7.50676 25.4156 7.89336V9.47852H26.9947C27.3813 9.47852 27.6947 9.79192 27.6947 10.1785C27.6947 10.5651 27.3813 10.8785 26.9947 10.8785H25.4156V12.4615C25.4156 12.8481 25.1022 13.1615 24.7156 13.1615C24.329 13.1615 24.0156 12.8481 24.0156 12.4615V10.8785H22.4266C22.04 10.8785 21.7266 10.5651 21.7266 10.1785C21.7266 9.79192 22.04 9.47852 22.4266 9.47852H24.0156V7.89336C24.0156 7.50676 24.329 7.19336 24.7156 7.19336Z" fill="black"/>
</svg>
