<svg width="24" height="24" viewBox="0 0 24 24" fill="none" xmlns="http://www.w3.org/2000/svg">
<path d="M18 12.9994H17.32L15.32 14.9994H17.23L19 16.9994H5L6.78 14.9994H8.83L6.83 12.9994H6L3 15.9994V19.9994C3 20.5298 3.21071 21.0385 3.58579 21.4136C3.96086 21.7887 4.46957 21.9994 5 21.9994H19C19.5304 21.9994 20.0391 21.7887 20.4142 21.4136C20.7893 21.0385 21 20.5298 21 19.9994V15.9994L18 12.9994ZM17 7.94939L12.05 12.8994L8.5 9.35939L13.46 4.40939L17 7.94939ZM12.76 2.28939L6.39 8.65939C6.2973 8.7519 6.22375 8.86179 6.17357 8.98276C6.12339 9.10374 6.09756 9.23342 6.09756 9.36439C6.09756 9.49536 6.12339 9.62504 6.17357 9.74601C6.22375 9.86699 6.2973 9.97687 6.39 10.0694L11.34 14.9994C11.73 15.4094 12.36 15.4094 12.75 14.9994L19.11 8.65939C19.2027 8.56688 19.2763 8.45699 19.3264 8.33601C19.3766 8.21504 19.4024 8.08536 19.4024 7.95439C19.4024 7.82342 19.3766 7.69374 19.3264 7.57276C19.2763 7.45179 19.2027 7.3419 19.11 7.24939L14.16 2.29939C14.0698 2.20499 13.9615 2.12968 13.8416 2.07792C13.7218 2.02616 13.5927 1.999 13.4621 1.99807C13.3315 1.99714 13.2021 2.02244 13.0815 2.07249C12.9609 2.12253 12.8516 2.19629 12.76 2.28939Z" fill="black"/>
</svg>
